<?xml version="1.0" standalone="no"?>
<!DOCTYPE svg PUBLIC "-//W3C//DTD SVG 1.1//EN" "http://www.w3.org/Graphics/SVG/1.1/DTD/svg11.dtd" >
<svg xmlns="http://www.w3.org/2000/svg">
<metadata>
This is a custom SVG webfont generated by Font Squirrel.
Copyright   : Copyright c 2012 by John West All rights reserved
Designer    : John West
Foundry     : John West
</metadata>
<defs>
<font id="FontaineCapelJWRegular" horiz-adv-x="571" >
<font-face units-per-em="2048" ascent="1536" descent="-512" />
<missing-glyph horiz-adv-x="1024" />
<glyph unicode=" "  horiz-adv-x="1024" />
<glyph unicode="&#x09;" horiz-adv-x="1024" />
<glyph unicode="&#xa0;" horiz-adv-x="1024" />
<glyph unicode="!" horiz-adv-x="333" d="M61 86q0 45 32 77t77 32t77 -32t32 -77t-32 -77t-77 -32t-77 32t-32 77zM72 1399q0 41 26.5 68.5t71.5 27.5t71.5 -27.5t26.5 -68.5q0 -8 -2 -32t-4 -52l-4 -58q-2 -29 -4 -47l-64 -845h-40l-64 845q-2 18 -4 47l-4 58q-2 29 -4 52.5t-2 31.5z" />
<glyph unicode="&#x22;" horiz-adv-x="526" d="M84 1384v33q0 35 10 56.5t41 21.5t41 -21.5t10 -56.5v-33q0 -14 -2 -30l-30 -451h-37l-31 451q-2 16 -2 30zM342 1384v33q0 35 10 56.5t41 21.5t41 -21.5t10 -56.5v-33q0 -14 -2 -30l-30 -451h-37l-31 451q-2 16 -2 30z" />
<glyph unicode="#" horiz-adv-x="1198" d="M23 485l14 37h272l148 406h-273l15 37h272l178 493h43l-178 -493h346l178 493h43l-178 -493h273l-15 -37h-272l-148 -406h273l-15 -37h-272l-176 -485h-43l176 485h-346l-176 -485h-43l176 485h-272zM352 522h346l148 406h-346z" />
<glyph unicode="$" horiz-adv-x="1136" d="M53 0v440h23q33 -156 89 -243.5t121.5 -130.5t133 -54.5t125.5 -11.5v666l-119 34q-168 49 -252 135.5t-84 225.5q0 92 33 171t92 135t142 89t182 33h6v125h28v-125q61 -4 103.5 -16.5t74 -26.5t57.5 -25.5t52 -11.5q27 0 36 7t26 36h28v-369h-24q-12 70 -39 135.5 t-70 116.5t-103.5 85t-140.5 40v-579l170 -50q29 -8 87.5 -29.5t117 -64.5t102.5 -111.5t44 -172.5q0 -94 -36 -181.5t-102.5 -154t-163 -106.5t-219.5 -40v-143h-28v143q-37 0 -65.5 2t-54.5 5.5t-52.5 9.5t-57.5 14q-41 12 -88 28.5t-82 16.5q-31 0 -42 -12t-19 -35h-31z M201 1182q0 -66 25.5 -112t67.5 -79t95 -53t107 -35l49 -14v571h-6q-49 0 -108.5 -13t-111 -45t-85 -86t-33.5 -134zM573 0q109 0 178.5 33t110.5 82t57.5 107.5t16.5 107.5q0 74 -24.5 125t-62.5 84.5t-83 54t-86 33.5l-107 30v-657z" />
<glyph unicode="%" horiz-adv-x="1497" d="M55 1153q0 72 34 133.5t84 106.5t109.5 70.5t112.5 25.5q57 0 118.5 -26.5t112 -73t82 -107.5t31.5 -133q0 -66 -30.5 -127t-77.5 -107.5t-107.5 -74t-117.5 -27.5q-72 0 -136.5 29.5t-111.5 78t-75 109t-28 123.5zM199 1163q0 -176 48 -248.5t152 -72.5 q102 0 149.5 73.5t47.5 253.5q0 162 -54.5 226.5t-150.5 64.5q-61 0 -98 -27.5t-58.5 -71.5t-28.5 -96.5t-7 -101.5zM340 -10l778 1499l37 -19l-778 -1499zM756 311q0 72 33.5 133.5t84 106.5t109.5 70.5t113 25.5q57 0 118.5 -26.5t111.5 -72.5t82 -107.5t32 -133.5 q0 -66 -31 -127t-78 -107t-107.5 -74t-117.5 -28q-72 0 -136.5 30t-111.5 78t-74.5 108.5t-27.5 123.5zM899 322q0 -176 48 -249t153 -73q102 0 149 73.5t47 254.5q0 162 -54 226t-150 64q-61 0 -98.5 -27.5t-59 -71.5t-28.5 -96t-7 -101z" />
<glyph unicode="&#x26;" horiz-adv-x="1372" d="M51 426q0 106 38 186t96.5 140.5t128 105.5t135.5 82q-23 45 -45.5 105.5t-22.5 146.5q0 70 24.5 124t63.5 93t89 59.5t101 20.5q78 0 132.5 -49t54.5 -154q0 -61 -19.5 -107t-49 -81t-66.5 -59.5t-70 -43.5l356 -680q59 100 81 198.5t22 197.5q0 98 -9.5 156.5t-32 89 t-60 40t-95.5 9.5v28h389v-28q-53 0 -85.5 -14.5t-50 -45.5t-23 -79t-5.5 -115q0 -84 -8 -149.5t-22.5 -120t-37 -102.5t-48.5 -95q53 -98 94 -154.5t94 -56.5q33 0 52.5 18.5t29.5 47t14 62.5t4 66h29q0 -86 -22.5 -142t-56 -91t-77 -49.5t-81.5 -14.5q-43 0 -74 9.5 t-54.5 29t-44 48t-45.5 67.5q-25 -25 -61.5 -51.5t-82.5 -49t-101.5 -38t-118.5 -15.5q-129 0 -217 50.5t-142.5 121t-77 149.5t-22.5 134zM227 598q0 -92 33 -193.5t86 -185.5t119.5 -138t134.5 -54q74 0 138.5 35.5t121.5 89.5l-399 766q-106 -55 -170 -128t-64 -192z M535 1294q0 -53 29.5 -126.5t66.5 -147.5q35 20 68.5 42.5t59 53.5t42 72t16.5 96q0 70 -33.5 123t-115.5 53q-53 0 -93 -47t-40 -119z" />
<glyph unicode="'" horiz-adv-x="212" d="M59 1384v33q0 35 10.5 56.5t41.5 21.5t41 -21.5t10 -56.5v-33q0 -14 -2 -30l-31 -451h-37l-31 451q-2 16 -2 30z" />
<glyph unicode="(" horiz-adv-x="411" d="M27 442q0 223 45 404.5t101 314.5t107.5 212t65.5 97l33 -20q-170 -248 -240.5 -496.5t-70.5 -511.5q0 -262 70.5 -510.5t240.5 -496.5l-33 -21q-14 18 -65.5 97t-107.5 212.5t-101 314.5t-45 404z" />
<glyph unicode=")" horiz-adv-x="409" d="M33 -565q170 248 240.5 496.5t70.5 510.5t-70.5 511t-240.5 497l33 20q14 -18 65 -97t107.5 -212t101.5 -314t45 -405q0 -223 -45 -404t-101.5 -314.5t-107.5 -212t-65 -97.5z" />
<glyph unicode="*" horiz-adv-x="800" d="M33 1247q0 31 21.5 58.5t64.5 27.5q33 0 53.5 -20.5t47 -53t65.5 -75.5t106 -86q-4 76 -16.5 126t-26.5 83.5t-25.5 56t-11.5 43.5q0 29 20.5 58.5t67.5 29.5t67.5 -29.5t20.5 -58.5q0 -20 -11 -43t-24.5 -56.5t-26.5 -83.5t-17 -126q68 43 106.5 86t65 75.5t47 53 t53.5 20.5q43 0 64.5 -27.5t21.5 -58.5q0 -29 -12.5 -46t-30.5 -27q-14 -8 -37.5 -9.5t-60.5 -7.5t-89.5 -21.5t-123.5 -50.5q72 -35 124 -50t89 -21t60.5 -7t37.5 -10q18 -10 30.5 -27.5t12.5 -45.5q0 -31 -21.5 -58.5t-64.5 -27.5q-33 0 -53.5 20.5t-47 53t-65.5 75.5 t-106 86q4 -76 17 -126t27.5 -84t25.5 -56.5t11 -42.5q0 -29 -20 -58.5t-68 -29.5q-47 0 -67.5 29.5t-20.5 58.5q0 20 11.5 42.5t24.5 56.5t26.5 84t17.5 126q-68 -43 -106.5 -86t-65 -75.5t-47 -53t-53.5 -20.5q-43 0 -64.5 27.5t-21.5 58.5q0 29 12 46t31 27 q14 8 36.5 9.5t59.5 7.5t90 21.5t125 49.5q-74 35 -126 50.5t-89 21.5t-60.5 7t-37.5 10q-18 10 -30.5 27t-12.5 46z" />
<glyph unicode="+" horiz-adv-x="987" d="M2 473v37h471v473h41v-473h471v-37h-471v-473h-41v473h-471z" />
<glyph unicode="," horiz-adv-x="389" d="M53 88q0 47 36 82t89 35q39 0 71 -18.5t54.5 -47t33.5 -67.5t11 -78q0 -59 -24.5 -117.5t-59.5 -108t-76 -86t-71 -57.5l-19 25q59 43 97 83t59.5 75.5t29 64.5t7.5 49q0 66 -37 107q-35 -51 -88 -52q-39 0 -76 29t-37 82z" />
<glyph unicode="-" d="M96 379v135h381v-135h-381z" />
<glyph unicode="." horiz-adv-x="350" d="M70 86q0 45 31.5 77t76.5 32t77 -32t32 -77t-32 -77t-77 -32t-76.5 32t-31.5 77z" />
<glyph unicode="/" horiz-adv-x="602" d="M4 0l553 1470l41 -12l-553 -1470z" />
<glyph unicode="0" horiz-adv-x="1101" d="M72 731q0 123 19.5 257t72.5 246t146 183.5t241 71.5q147 0 240.5 -71.5t146.5 -183.5t72.5 -246t19.5 -257q0 -125 -19.5 -259t-72.5 -245.5t-146.5 -183.5t-240.5 -72t-240.5 72t-146.5 183.5t-72.5 245.5t-19.5 259zM276 731q0 -190 11.5 -328.5t41 -227.5t83 -132 t139.5 -43t139 43t83 132t41 227.5t11 328.5t-11 327.5t-41 226.5t-83 132t-139 43t-139.5 -43t-83 -132t-41 -226.5t-11.5 -327.5z" />
<glyph unicode="1" horiz-adv-x="755" d="M10 1176q135 76 246 145.5t209 167.5h41v-1460h227v-29h-631v29h228v1298q-31 -23 -70 -45l-233 -133z" />
<glyph unicode="2" horiz-adv-x="1073" d="M59 0v29q80 68 146.5 125t125 112.5t112 112.5t108.5 123q131 160 179 309.5t48 275.5q0 184 -62.5 278.5t-197.5 94.5q-104 0 -171.5 -46t-67.5 -128q0 -29 13 -58.5t13 -60.5q0 -35 -24.5 -52t-57.5 -17q-43 0 -73.5 22.5t-30.5 81.5q0 53 30.5 105.5t84 92.5t127 64.5 t157.5 24.5q119 0 204 -35t140.5 -91t82 -128t26.5 -148q0 -92 -26.5 -170.5t-73 -148.5t-105.5 -133.5t-125 -126.5q-92 -92 -181 -176t-196 -180h469q121 0 174.5 58t65.5 161h22v-371h-936z" />
<glyph unicode="3" horiz-adv-x="1015" d="M55 291l29 6q4 -29 20.5 -78t56.5 -98t110.5 -85t183.5 -36q63 0 118.5 18.5t95.5 67.5t62.5 134t22.5 218q0 68 -10.5 134.5t-41 118.5t-84 85t-139.5 33q-72 0 -131 -21.5t-110 -58.5l-19 33l33 16q16 8 37.5 16.5t51.5 17.5t71 19q90 25 149.5 62t93 86t47 108.5 t13.5 129.5q0 49 -10.5 93t-35 77.5t-64.5 53t-101 19.5q-68 0 -111 -17.5t-66.5 -41t-31.5 -47t-8 -37.5q0 -55 17.5 -84t17.5 -51q0 -37 -26 -51.5t-60 -14.5q-90 0 -91 88q0 27 17.5 75t60.5 95t116 81t181 34q98 0 171 -31t120 -77t69.5 -100t22.5 -103 q0 -86 -50 -147.5t-116.5 -102.5t-134 -63.5t-102.5 -28.5v-5q88 -4 170 -34.5t145.5 -85t100 -128t36.5 -165.5q0 -82 -35.5 -162t-100 -143.5t-156 -102.5t-201.5 -39q-102 0 -174 28t-119 74t-74 102.5t-37 115.5z" />
<glyph unicode="4" horiz-adv-x="997" d="M10 358q76 164 144.5 301.5t125 241t96.5 171t56 91.5q74 117 120 181.5t79 97.5t56.5 40t53.5 7q53 0 68.5 -15.5t15.5 -33.5q0 -10 -11 -24.5t-56 -57.5q-47 -45 -87 -86t-75 -81t-68.5 -80t-68.5 -81q-123 -145 -220.5 -314t-183.5 -323h539v547h176v-547h182v-35 h-182v-329h182v-29h-540v29h182v329h-584z" />
<glyph unicode="5" horiz-adv-x="991" d="M68 209q0 47 31.5 66.5t72.5 19.5q43 0 68.5 -20.5t25.5 -61.5q0 -14 -1 -32.5t-1 -30.5q0 -92 51.5 -121t137.5 -29q68 0 118 22.5t84.5 80t52 154.5t17.5 247q0 86 -12.5 155.5t-42 118.5t-80.5 76t-131 27q-92 0 -153.5 -28t-100.5 -66.5t-58.5 -81.5t-27.5 -74l-23 6 l129 852h68q31 -31 62.5 -61.5t69.5 -55t85 -39t108 -14.5q41 0 76 7t68 26.5t66.5 52.5t74.5 84l23 -14q-55 -76 -100.5 -133.5t-89.5 -95.5t-93 -56.5t-113 -18.5q-37 0 -68.5 5.5t-67.5 17.5t-77 29.5t-94 42.5l-78 -498l5 -4q47 68 128.5 106.5t192.5 38.5t196 -37.5 t142 -99t86 -140.5t29 -161q0 -61 -23.5 -146t-80 -164t-153 -134.5t-241.5 -55.5q-109 0 -177.5 28t-109.5 65.5t-56 77.5t-15 67z" />
<glyph unicode="6" horiz-adv-x="1064" d="M63 616q0 182 46.5 341t128 278t191.5 186.5t239 67.5q78 0 130 -23.5t83.5 -59.5t45 -78t13.5 -79q0 -45 -29.5 -75.5t-81.5 -30.5q-94 0 -94 69q0 18 7.5 33t16.5 31t17 36.5t8 51.5q0 53 -34.5 74.5t-94.5 21.5q-78 0 -137 -37t-102 -97t-72 -137t-47 -156 t-29.5 -152.5t-19.5 -128.5l4 -4q41 74 120 117.5t175 43.5q111 0 194.5 -42t140 -108.5t86 -148.5t29.5 -161q0 -92 -36.5 -178.5t-99 -153t-146.5 -106.5t-178 -40q-92 0 -177.5 35t-151 112t-105.5 199.5t-40 298.5zM256 573q0 -158 11.5 -263t51.5 -193q23 -51 73 -84 t145 -33q80 0 129 31.5t75 87.5q29 59 40.5 136t11.5 200q0 129 -19.5 211t-46.5 122.5t-73 66.5t-111 26q-102 0 -165 -44t-91 -96q-18 -35 -24.5 -76t-6.5 -92z" />
<glyph unicode="7" horiz-adv-x="899" d="M72 1079v379h796q-10 -178 -53 -358t-94 -334t-98.5 -263.5t-63.5 -144.5q-66 -141 -111 -220t-78.5 -115.5t-61 -44t-56.5 -7.5t-61.5 16.5t-32.5 51.5q0 39 25.5 62.5t62.5 60.5q88 86 147.5 154.5t102.5 131t75.5 124t67.5 133.5q53 111 88 211t54.5 179t27.5 131 t10 68h-506q-104 0 -155.5 -58t-63.5 -157h-22z" />
<glyph unicode="8" horiz-adv-x="1036" d="M63 356q0 88 38 153.5t92.5 113t115 78t103.5 49.5q-59 27 -111.5 58.5t-90.5 73.5t-59.5 99t-21.5 139q0 80 36 147.5t93 117t130 77t149 27.5q70 0 137 -21.5t119.5 -61.5t84 -96.5t31.5 -125.5q0 -66 -22.5 -116t-61.5 -92t-88 -77t-102 -68q59 -29 119.5 -64.5 t108.5 -84.5t79 -112.5t31 -143.5q0 -90 -33 -172t-95.5 -144.5t-151.5 -100.5t-201 -38q-90 0 -169 29t-136.5 80t-90.5 121.5t-33 154.5zM231 342q0 -68 15.5 -129t49.5 -109.5t88 -76t132 -27.5q68 0 121 34t92 84t59.5 111.5t20.5 116.5q0 88 -32 146.5t-84 100.5 t-118.5 74.5t-134.5 67.5q-68 -33 -108.5 -75t-63 -91t-30 -106.5t-7.5 -120.5zM270 1188q0 -66 19.5 -113t56.5 -82q14 -14 43 -32.5t63.5 -38t74.5 -39t79 -37.5q25 14 50.5 37.5t48 59.5t37 85t14.5 113q0 61 -8.5 118.5t-31 102.5t-66.5 71.5t-113 26.5 q-123 0 -195 -75.5t-72 -196.5z" />
<glyph unicode="9" horiz-adv-x="1067" d="M66 1012q0 98 42 185t108.5 151.5t149.5 102.5t166 38q84 0 167 -31t149.5 -107.5t107.5 -206.5t41 -329q0 -188 -28.5 -324.5t-74.5 -230.5t-104.5 -150.5t-118 -87t-113.5 -41t-93 -10.5q-61 0 -122.5 17.5t-111 48.5t-79 76t-29.5 100q0 70 35 95.5t80 25.5 q49 0 69.5 -23.5t20.5 -48.5q0 -16 -8.5 -30.5t-17.5 -31t-16 -38t-7 -51.5q0 -47 44 -79t132 -32q82 0 146.5 34t109.5 115.5t68.5 219t23.5 344.5h-4q-10 -20 -32 -48t-56.5 -53.5t-83.5 -44t-115 -18.5q-104 0 -187 42t-140.5 108.5t-88 149.5t-30.5 163zM270 1014 q0 -82 7.5 -160t33 -139.5t76.5 -99t139 -37.5q23 0 69 9t93 39.5t82 91t35 163.5q0 59 -4 129.5t-12.5 137t-21.5 123t-34 89.5q-18 33 -61 66.5t-137 33.5q-80 0 -131.5 -30.5t-81 -88t-41 -140.5t-11.5 -187z" />
<glyph unicode=":" horiz-adv-x="368" d="M80 86q0 45 31.5 77t76.5 32t77 -32t32 -77t-32 -77t-77 -32t-76.5 32t-31.5 77zM80 793q0 45 31.5 76.5t76.5 31.5t77 -31.5t32 -76.5t-32 -77t-77 -32t-76.5 32t-31.5 77z" />
<glyph unicode=";" horiz-adv-x="360" d="M29 88q0 47 35.5 82t89.5 35q39 0 70.5 -18.5t54 -47t34 -67.5t11.5 -78q0 -59 -25 -117.5t-59.5 -108t-75.5 -86t-72 -57.5l-18 25q59 43 97 83t59.5 75.5t28.5 64.5t7 49q0 66 -37 107q-35 -51 -88 -52q-39 0 -75.5 29t-36.5 82zM68 793q0 45 31.5 76.5t76.5 31.5 t77 -31.5t32 -76.5t-32 -77t-77 -32t-76.5 32t-31.5 77z" />
<glyph unicode="A" horiz-adv-x="1464" d="M12 0v10h303l410 1485h10l506 -1485h205v-10h-615v10h205q0 -4 -7 20.5t-20.5 65.5t-30.5 95.5t-36 111.5q-43 133 -100 307h-340l-168 -600h293v-10h-615zM504 621h336l-174 598z" />
<glyph unicode="B" horiz-adv-x="1140" d="M41 0v10h205v1413h-205v11h410h204q117 0 196 -26t126 -70t67.5 -102t20.5 -126q0 -74 -26.5 -132t-70.5 -100t-104.5 -64.5t-128.5 -22.5q70 -14 130.5 -49t104.5 -87.5t69.5 -117t25.5 -138.5q0 -84 -33 -156.5t-88 -126t-130 -85t-159 -31.5h-204h-410zM451 10h204 q6 -1 13 0q57 0 93 50q40 56 58 144q15 71 15 152v37q-4 102 -26 191.5t-60 147.5q-38 56 -89 57q-2 0 -4 -1h-204v-778zM451 799h204q7 -1 14 -1q50 0 85 40q39 45 58 115.5t19 153.5t-19 154.5t-58 117.5q-37 44 -94 44h-5h-204v-624z" />
<glyph unicode="C" horiz-adv-x="1384" d="M59 748q0 154 59.5 290t161 237t237.5 160.5t290 59.5q135 0 213 -13.5t125 -21.5q31 -5 54 -5q12 0 22 1q29 4 67 39v-614q0 129 -32.5 238.5t-95 191.5t-151.5 128t-202 46t-211 -58.5t-172 -158t-117 -233.5t-43 -287q0 -154 43 -288t117 -233.5t172 -158t211 -58.5 q117 0 202 50.5t142 131t91 184t46 210.5v-586q-39 39 -93 43q-17 1 -34 1q-39 0 -83 -6q-62 -9 -131.5 -23.5t-139.5 -14.5q-154 0 -290 59.5t-237.5 161t-161 237.5t-59.5 290z" />
<glyph unicode="D" horiz-adv-x="1550" d="M55 0v10h205v1413h-205v13l27 -1q27 -1 70 -1h98h112h308q170 0 319.5 -56.5t260 -154t175 -228.5t64.5 -278t-64.5 -278.5t-175 -228.5t-260 -153.5t-319.5 -56.5h-615zM465 10h205q127 0 239.5 55.5t195.5 151.5t131 225t48 275q0 145 -48 274t-131 225.5t-195.5 151.5 t-239.5 55h-205v-1413z" />
<glyph unicode="E" horiz-adv-x="1374" d="M49 0v10h205v1413h-205v11h748h481v-615q0 129 -33 238.5t-95.5 191.5t-151.5 128t-201 46h-338v-624h205q57 0 112 26.5t98.5 69.5t70 98.5t26.5 112.5v-645q-39 111 -92.5 175t-100.5 99q-55 39 -114 53h-205v-778h338q113 0 201.5 46t151 128t95.5 191.5t33 238.5 v-614h-481h-748z" />
<glyph unicode="F" horiz-adv-x="1306" d="M49 0v10h205v1413h-205v11h748h481v-615q0 129 -33 238.5t-95.5 191.5t-151.5 128t-201 46h-338v-624h205q57 0 112 26.5t98.5 69.5t70 98.5t26.5 112.5v-645q-39 111 -92.5 175t-100.5 99q-55 39 -114 53h-205v-778h205v-10h-615z" />
<glyph unicode="G" horiz-adv-x="1384" d="M59 748q0 154 59.5 290t161 237t237.5 160.5t290 59.5q135 0 213 -13.5t125 -21.5q31 -5 54 -5q12 0 22 1q29 4 67 39v-614q0 129 -32.5 238.5t-95 191.5t-151.5 128t-202 46t-211 -58.5t-172 -158t-117 -233.5t-43 -287q0 -154 43 -288t117 -233.5t172 -158t211 -58.5 q80 0 163 20.5t150.5 59.5t111.5 94.5t46 122.5q0 33 -1 83t-18.5 98.5t-57.5 83t-116 34.5l-206 -4v12h409v-614q-39 39 -93 43q-17 1 -34 1q-39 0 -83 -6q-62 -9 -131.5 -23.5t-139.5 -14.5q-154 0 -290 59.5t-237.5 161t-161 237.5t-59.5 290z" />
<glyph unicode="H" horiz-adv-x="1544" d="M55 0v10h205v1413h-205v11h615v-11h-205v-313v-311h614v624h-205v11h615v-11h-205v-1413h205v-10h-615v10h205v778h-614v-778h205v-10h-615z" />
<glyph unicode="I" horiz-adv-x="651" d="M18 0v10h205v1413h-205v11h615v-11h-205v-1413h205v-10h-615z" />
<glyph unicode="J" horiz-adv-x="874" d="M29 307q0 49 26.5 72.5t63.5 28.5q8 1 16 0q29 0 60 -11q39 -14 61 -42q22 -26 22 -63q0 -41 -45 -87q-27 -55 -26 -99q0 -37 25.5 -66.5t103.5 -29.5q47 0 78 23q27 18 39 59q4 13 3 30q0 37 -18 93v1208h-205v11h615v-11h-205v-1003q0 -80 -13.5 -139.5t-35 -103.5 t-49 -73.5t-56.5 -50.5q-68 -47 -153 -53q-86 4 -154 39q-59 29 -106 91t-47 177z" />
<glyph unicode="K" horiz-adv-x="1513" d="M51 0v10h228v1413h-228v13h615v-13h-205l2 -624h41l592 624h-226v11h410v-11h-174l-498 -528l672 -885h205v-10h-615v10h205l-575 778h-39v-778h233v-10h-643z" />
<glyph unicode="L" horiz-adv-x="1302" d="M49 0v10h205v1413h-205v11h615v-11h-205v-1413h338q113 4 203 51.5t151 127t94 188t33 237.5v-614h-481h-748z" />
<glyph unicode="M" horiz-adv-x="1757" d="M59 0v10h205v1413h-205v11h615v-11h-205l473 -1167l346 1167h-205v11h615v-11h-205v-1413h205v-10h-615v10h205l-1 60q-1 59 -1 155v221v254q0 305 2 693l-409 -1393l-410 1024v-1014h205v-10h-615z" />
<glyph unicode="N" horiz-adv-x="1511" d="M39 0v10h307l2 1413h-309v11h438l682 -1092l6 -4v1085h-307v11h615v-11h-297v-1423h-11l-807 1300v-1290h295v-10h-614z" />
<glyph unicode="O" horiz-adv-x="1626" d="M66 748q0 154 59 290t160.5 237t237.5 160.5t290 59.5t290 -59.5t237.5 -160.5t161 -237.5t59.5 -289.5q0 -154 -59.5 -290t-161 -237.5t-237.5 -161t-290 -59.5t-290 59.5t-237.5 161t-160.5 237.5t-59 290zM270 748q0 -154 43 -288t117 -233.5t172 -158t211 -58.5 t211 58.5t172 158t117 233.5t43 288t-43 287.5t-117 233t-172 158t-211 58.5t-211 -58.5t-172 -158t-117 -233t-43 -287.5z" />
<glyph unicode="P" horiz-adv-x="1091" d="M43 0v10h205v1413h-205v11h410h204q117 0 196 -26t126 -70t67.5 -102t20.5 -126q0 -74 -26.5 -133t-70.5 -101t-104.5 -65t-128.5 -23h-284v-778h204v-10h-204h-410zM453 799h204q7 -1 14 -1q50 0 85 40q39 45 58.5 115.5t19.5 153.5t-19.5 154.5t-58.5 117.5 q-37 44 -94 44h-5h-204v-624z" />
<glyph unicode="Q" horiz-adv-x="1607" d="M33 748q0 154 59.5 290t160.5 237t237.5 160.5t289.5 59.5q154 0 290 -59.5t237.5 -160.5t161 -237.5t59.5 -289.5q0 -154 -59.5 -293.5t-161 -245t-237.5 -167.5t-290 -62h2q215 -145 375 -259q68 -47 131.5 -92t108.5 -78.5t65 -52.5q15 -14 10 -14q-2 0 -6 2 q-150 49 -244 86t-151 66.5t-89 55t-56.5 51.5t-52 55.5t-79 68.5t-134 90t-218.5 121q-92 45 -166.5 114.5t-129 155.5t-84 187.5t-29.5 210.5zM238 748q0 -154 43 -288t116.5 -233.5t172 -158t210.5 -58.5q113 0 211.5 58.5t172 158t116.5 233.5t43 288t-43 287.5 t-116.5 233t-172 158t-211.5 58.5t-211 -58.5t-171.5 -158t-116.5 -233t-43 -287.5z" />
<glyph unicode="R" horiz-adv-x="1515" d="M55 0v10h205v1413h-205v11h410h205q117 0 195.5 -26t125.5 -70t67.5 -102t20.5 -126q0 -74 -26.5 -133t-70.5 -101t-104.5 -65t-127.5 -23q98 -4 152 -39.5t83 -91t39 -124t21.5 -140t32 -139.5t66.5 -121t128 -87t217 -36v-10h-205q-154 0 -240 50t-132 127t-63.5 171 t-34.5 181t-47 158t-97 101h-205v-778h205v-10h-205h-410zM465 799h205q7 -1 14 -1q50 0 84 40q39 45 58.5 115.5t19.5 153.5t-19.5 154.5t-58.5 117.5q-37 44 -93 44h-5h-205v-624z" />
<glyph unicode="S" horiz-adv-x="1288" d="M82 0v614q18 -154 66.5 -267.5t119 -188t157.5 -111.5t179 -37q111 0 178.5 21.5t108.5 56.5t57.5 93.5t16.5 107.5q0 70 -27 119t-68 80.5t-89 51t-91 31.5l-235 72q-166 51 -251 135t-85 226q0 92 32.5 170.5t92 136t142.5 90.5t181 33q57 0 112.5 -8.5t106.5 -12.5 q29 -2 58 -2q21 0 42 1q48 3 93 26v-619q-6 119 -39 228.5t-86 192.5t-126 133t-161 50q-102 0 -170.5 -34.5t-104.5 -89t-40 -121.5q-1 -8 -1 -17q0 -59 25 -115q29 -65 91.5 -119.5t156.5 -82.5l248 -78q119 -39 197 -110.5t111 -156.5q25 -62 25 -127q0 -23 -3 -46 q-12 -88 -70.5 -161t-165 -119t-262.5 -46q-55 0 -128 12.5t-145 20.5q-48 5 -94 5q-23 0 -44 -1q-66 -4 -111 -37z" />
<glyph unicode="T" horiz-adv-x="1521" d="M45 819v615h1434v-615q0 129 -33 238.5t-95.5 191.5t-151.5 128t-202 46h-133v-1413h205v-10h-614v10h204v1413h-133q-113 0 -201.5 -46t-151 -128t-95.5 -191.5t-33 -238.5z" />
<glyph unicode="U" horiz-adv-x="1562" d="M47 1430v28h660v-28h-228v-990q0 -123 21.5 -208t64.5 -137t106.5 -74.5t145.5 -22.5q115 0 203 34t151 120q20 27 36 53t27 62t17 86t6 124v953h-227v28h486v-28h-228v-994q0 -86 -18.5 -156.5t-75.5 -146.5q-55 -74 -153.5 -119t-260.5 -45q-246 0 -376 121t-130 371 v969h-227z" />
<glyph unicode="V" horiz-adv-x="1572" d="M23 1430v28h632v-28h-227l455 -1188l448 1188h-223v28h442v-28h-184l-551 -1461h-51l-557 1461h-184z" />
<glyph unicode="W" horiz-adv-x="2322" d="M41 1430v28h616v-28h-213l422 -1188h4l273 755l-156 433h-172v28h615v-28h-224l422 -1188h4l430 1188h-219v28h438v-28h-184l-530 -1461h-51l-353 983h-4l-356 -983h-55l-523 1461h-184z" />
<glyph unicode="X" horiz-adv-x="1533" d="M53 0v29h197l409 684l-436 717h-170v28h611v-28h-197l328 -539l327 539h-196v28h426v-28h-197l-342 -568l510 -833h170v-29h-614v29h196l-399 655l-391 -655h196v-29h-428z" />
<glyph unicode="Y" horiz-adv-x="1497" d="M23 1430v28h626v-28h-205l410 -721l387 721h-207v28h439v-28h-199l-400 -748v-653h228v-29h-660v29h228v587l-461 814h-186z" />
<glyph unicode="Z" horiz-adv-x="1284" d="M70 0l854 1430h-318q-166 0 -258 -87.5t-133 -240.5h-22v356h976l-858 -1429h451q102 0 157.5 29.5t98.5 70.5q45 41 92 125t70 195h22v-449h-1132z" />
<glyph unicode="a" horiz-adv-x="1007" d="M72 170q0 72 28.5 115t74.5 68.5t102.5 42t113.5 34.5q68 23 112 39t68.5 39.5t33.5 59.5t9 98q0 49 -6 88t-22.5 66.5t-47 42t-81.5 14.5q-68 0 -112 -24t-44 -77q0 -35 6 -68.5t6 -50.5q0 -29 -20.5 -48t-59.5 -19q-68 0 -84 24.5t-16 63.5q0 45 20.5 86t60.5 72.5 t100.5 50t138.5 18.5q94 0 157.5 -23.5t102.5 -63.5t55 -90t16 -105v-510q0 -59 18.5 -80t53.5 -21q23 0 47.5 8.5t46.5 24.5l17 -22q-27 -20 -64 -36t-90 -16q-98 0 -142 42t-61 118h-4q-8 -18 -22.5 -46t-44 -53.5t-78.5 -43t-125 -17.5q-86 0 -137.5 19.5t-80 48.5 t-37.5 64.5t-9 66.5zM248 193q0 -31 6 -64t22.5 -58.5t46 -42t76.5 -16.5q68 0 110 29t63.5 72t28.5 93t7 91v205h-4q-4 -27 -67 -53l-154 -62q-66 -27 -100.5 -74.5t-34.5 -119.5z" />
<glyph unicode="b" horiz-adv-x="1128" d="M53 0v29h158v1419h-158v29h334v-762h4q29 80 98.5 135t182.5 55q88 0 165.5 -38t137 -100t94.5 -146t35 -177q0 -94 -36 -179t-97.5 -150.5t-142 -104.5t-171.5 -39q-70 0 -117.5 23.5t-79.5 56.5t-48.5 68t-24.5 59h-4v-178h-330zM387 401q0 -68 10.5 -139.5t39 -129.5 t80.5 -95t138 -37q84 0 133.5 33t74 94t30.5 148t6 194q0 94 -10 169t-36 128t-72 82t-117 29q-76 0 -125.5 -27t-79.5 -68q-23 -29 -36 -61.5t-21.5 -77.5t-11.5 -103.5t-3 -138.5z" />
<glyph unicode="c" horiz-adv-x="950" d="M63 434q0 100 38 186.5t102.5 150t151.5 99t186 35.5q55 0 113.5 -13t106.5 -41t79.5 -72t31.5 -107q0 -43 -27.5 -71t-78.5 -28q-35 0 -66.5 15.5t-31.5 52.5q0 29 14 70t14 67q0 47 -47 73t-108 26q-45 0 -93.5 -11.5t-88.5 -56.5t-65.5 -135t-25.5 -246 q0 -88 11.5 -166t41 -136t82 -92t136.5 -34q90 0 148 26.5t92 64.5t50.5 77t24.5 63l31 -6q-6 -23 -23.5 -64.5t-55.5 -83.5t-102.5 -74t-166.5 -32q-78 0 -162 24.5t-153.5 79t-114 142.5t-44.5 217z" />
<glyph unicode="d" horiz-adv-x="1128" d="M27 444q0 92 34.5 176.5t94 146.5t137.5 100t166 38q113 0 182.5 -55t97.5 -135h4v733h-157v29h334v-1448h157v-29h-329v178h-5q-8 -25 -24.5 -59.5t-48 -67.5t-79.5 -56.5t-118 -23.5q-90 0 -171 39t-142.5 104.5t-97 150.5t-35.5 179zM231 469q0 -106 6.5 -193.5 t31 -148.5t73.5 -94t133 -33q86 0 138.5 37t81 95t38.5 130t10 139q0 80 -3 138.5t-11 103.5t-22.5 78t-34.5 61q-31 41 -80 68t-125 27q-72 0 -118 -29t-71.5 -82t-36 -128t-10.5 -169z" />
<glyph unicode="e" horiz-adv-x="962" d="M63 434q0 90 36 175t98.5 150.5t146.5 105.5t180 40q57 0 123 -20.5t122 -66.5t94 -121.5t38 -188.5h-631q0 -20 -1 -42t-1 -54q0 -68 8.5 -141.5t36 -133t82 -98.5t144.5 -39t148 26.5t92 64.5t50.5 77t24.5 63l31 -6q-6 -23 -23.5 -64.5t-55.5 -83.5t-102.5 -74 t-166.5 -32t-189.5 33t-151 94.5t-98.5 146.5t-35 189zM272 537h420q4 29 4 53v51q0 70 -13 115t-36.5 71.5t-57.5 38t-73 11.5q-70 0 -115 -28t-71.5 -75t-40 -108t-17.5 -129z" />
<glyph unicode="f" horiz-adv-x="866" d="M37 0v29h158v821h-158v29h158v108q0 72 7 124t19 92t28.5 70t37.5 54q53 68 133 118t170 50q68 0 116 -19.5t78.5 -48t45 -62.5t14.5 -60q0 -39 -22.5 -72t-76.5 -33q-27 0 -60.5 12.5t-33.5 53.5q0 35 19.5 62.5t19.5 62.5q0 45 -37 60t-75 15q-84 0 -145.5 -73.5 t-61.5 -229.5v-284h254v-29h-254v-821h186v-29h-520z" />
<glyph unicode="g" horiz-adv-x="1101" d="M70 133q0 55 20.5 95t50 70t63.5 48.5t60 30.5q-119 82 -119 221q0 72 35 129t88.5 97t118 60.5t123.5 20.5q92 0 158.5 -37t97.5 -67q23 39 67 71.5t109 32.5q41 0 76 -17.5t35 -74.5q0 -37 -23.5 -55.5t-48.5 -18.5q-29 0 -41 16.5t-21.5 35t-19.5 35t-31 16.5 q-20 0 -41.5 -17.5t-38.5 -40.5q18 -20 47 -69t29 -123q0 -61 -30.5 -112.5t-81 -90.5t-117 -60.5t-135.5 -21.5q-72 0 -125 19.5t-82 33.5q-23 -10 -48.5 -22t-47 -30.5t-36 -44t-14.5 -58.5q0 -31 12.5 -51.5t32 -30.5t44 -14.5t51.5 -4.5h323q143 0 228.5 -68.5 t85.5 -215.5q0 -90 -39 -164t-103.5 -128t-148.5 -84t-172 -30q-80 0 -146.5 18.5t-115.5 50.5t-77 77t-28 100q0 53 21.5 97t55.5 78t77 58.5t86 40.5v5q-135 0 -199.5 44t-64.5 150zM225 -291q0 -74 25.5 -122t65.5 -77.5t89.5 -42t96.5 -12.5q74 0 134 22.5t104 60.5 t67.5 87t23.5 103q0 115 -62 163t-171 48h-221q-27 -16 -54.5 -34t-49 -44.5t-35 -62.5t-13.5 -89zM299 604q0 -61 9 -110.5t34 -85t66 -54t104 -18.5q106 0 151.5 66.5t45.5 201.5q0 47 -6.5 95.5t-26 88t-59 64.5t-107.5 25q-104 0 -157.5 -64t-53.5 -209z" />
<glyph unicode="h" horiz-adv-x="1226" d="M61 0v29h158v1419h-158v29h334v-805h4q10 27 35 66.5t67 75.5t102.5 61.5t144.5 25.5q135 0 220 -65.5t85 -208.5v-598h157v-29h-491v29h158v661q0 80 -38 131t-118 51q-66 0 -125 -28.5t-104.5 -79.5t-71 -121t-25.5 -151v-463h158v-29h-492z" />
<glyph unicode="i" horiz-adv-x="528" d="M20 0v29h158v821h-158v29h334v-850h158v-29h-492zM154 1356q0 45 31.5 76.5t76.5 31.5t77 -31.5t32 -76.5t-32 -77t-77 -32t-76.5 32t-31.5 77z" />
<glyph unicode="j" horiz-adv-x="620" d="M4 -399q0 49 26.5 73.5t65.5 24.5q37 0 55.5 -19.5t18.5 -52.5q0 -25 -7 -47t-7 -57q0 -41 26.5 -60.5t59.5 -19.5q59 0 91 48t32 155v1204h-158v29h334v-920q0 -98 -5.5 -162.5t-13.5 -105.5t-18 -64.5t-21 -44.5q-25 -49 -56.5 -81.5t-65 -52t-68.5 -27t-64 -7.5 q-33 0 -71.5 11.5t-72.5 34t-57.5 58.5t-23.5 83zM340 1356q0 45 31.5 76.5t77.5 31.5q45 0 76.5 -31.5t31.5 -76.5t-31.5 -77t-76.5 -32t-77 32t-32 77z" />
<glyph unicode="k" horiz-adv-x="1099" d="M57 0v29h158v1419h-158v29h334v-979h23l407 352h-145v29h317v-29h-123l-319 -275l453 -546h88v-29h-461v29h145l-362 440h-23v-440h113v-29h-447z" />
<glyph unicode="l" horiz-adv-x="538" d="M27 0v29h157v1419h-157v29h333v-1448h158v-29h-491z" />
<glyph unicode="m" horiz-adv-x="1837" d="M72 0v29h157v821h-157v29h329v-215h5q43 123 123.5 180t195.5 57q102 0 181 -45t104 -149h4q14 37 38.5 71.5t61.5 62t87 44t114 16.5q299 0 299 -305v-567h158v-29h-492v29h158v696q0 70 -38 108.5t-104 38.5q-51 0 -102 -19t-92 -58t-66.5 -100.5t-25.5 -143.5v-522 h157v-29h-491v29h158v667q0 90 -37 133t-99 43q-43 0 -94 -21.5t-95 -67.5t-73.5 -119.5t-29.5 -180.5v-454h157v-29h-491z" />
<glyph unicode="n" horiz-adv-x="1261" d="M59 0v29h158v821h-158v29h330v-220h4q12 27 36 68t65 80t102 66.5t149 27.5q135 0 220.5 -65.5t85.5 -208.5v-598h157v-29h-491v29h157v661q0 80 -37.5 131t-117.5 51q-66 0 -125 -28.5t-104.5 -79.5t-71 -121t-25.5 -151v-463h158v-29h-492z" />
<glyph unicode="o" horiz-adv-x="1081" d="M63 438q0 100 44.5 186.5t113 149t153.5 97t167 34.5t167 -34.5t153.5 -97t112.5 -148.5t44 -187q0 -96 -41 -181t-107.5 -148.5t-152.5 -100.5t-176 -37t-176 37t-153 100.5t-108 148.5t-41 181zM268 438q0 -145 22.5 -231t59.5 -132t86 -60.5t105 -14.5q55 0 104 14.5 t86 60.5t59.5 132t22.5 231q0 123 -16.5 206t-50 135t-85 75t-120.5 23q-70 0 -121 -23t-85 -75t-50.5 -135t-16.5 -206z" />
<glyph unicode="p" horiz-adv-x="1132" d="M55 -545h158v1395h-158v29h330v-172h4q31 86 101.5 142t183.5 56q88 0 166 -38t137 -100t94 -146t35 -177q0 -94 -36 -179t-97.5 -150.5t-142 -104.5t-171.5 -39q-70 0 -117.5 23.5t-78.5 55.5t-47.5 66t-22.5 54h-4v-715h158v-28h-492v28zM389 401q0 -68 10.5 -139.5 t39 -129.5t80.5 -95t138 -37q84 0 133.5 33t74 94t30.5 148t6 194q0 94 -10 169t-36 128t-72 82t-117 29q-76 0 -125 -27t-80 -68q-23 -29 -36 -61.5t-21.5 -77.5t-11.5 -103.5t-3 -138.5z" />
<glyph unicode="q" horiz-adv-x="1130" d="M27 444q0 92 34.5 176.5t94 146.5t137.5 100t166 38q113 0 183.5 -55t100.5 -143h5v172h329v-29h-157v-1395h157v-28h-491v28h157v715h-4q-6 -20 -22.5 -54t-47 -66t-78.5 -55.5t-118 -23.5q-90 0 -171 39t-142.5 104.5t-97 150.5t-35.5 179zM231 469q0 -106 6.5 -193.5 t31 -148.5t73.5 -94t133 -33q86 0 138.5 37t81 95t38.5 130t10 139q0 80 -3 138.5t-11 103.5t-22.5 78t-34.5 61q-31 41 -80 68t-125 27q-72 0 -118 -29t-71.5 -82t-36 -128t-10.5 -169z" />
<glyph unicode="r" horiz-adv-x="858" d="M45 0v29h158v821h-158v29h330v-207h4q8 31 26.5 69.5t51 74.5t79 60.5t111.5 24.5q47 0 82 -15.5t57.5 -39t32.5 -54t10 -61.5q0 -68 -30.5 -90.5t-71.5 -22.5q-90 0 -90 58q0 18 4 29.5t9 22.5t9.5 25.5t4.5 41.5q0 66 -72 65q-33 0 -70 -24.5t-68.5 -71.5t-53 -113.5 t-21.5 -152.5v-469h178v-29h-512z" />
<glyph unicode="s" horiz-adv-x="796" d="M78 0v287h22q14 -49 37 -99.5t61 -92.5t93 -68.5t133 -26.5q66 0 117 40t51 130q0 78 -40 109.5t-93 50.5l-160 55q-31 10 -66.5 25.5t-66.5 43t-50.5 70.5t-19.5 111q0 57 22.5 106.5t61.5 86t93.5 57t117.5 20.5q45 0 73 -7t48 -14t36.5 -14.5t39.5 -7.5t33 17h22v-234 h-22q-14 45 -33 87t-44.5 75t-63.5 51.5t-89 18.5q-98 0 -152.5 -44.5t-54.5 -117.5q0 -66 46 -99.5t137 -62.5l149 -49q96 -33 157.5 -90.5t61.5 -151.5q0 -55 -21.5 -108.5t-63.5 -93.5t-102.5 -64.5t-137.5 -24.5q-45 0 -83 9.5t-70 19.5t-58.5 19.5t-48.5 9.5 q-23 0 -33.5 -9.5t-16.5 -19.5h-22z" />
<glyph unicode="t" horiz-adv-x="714" d="M31 850v29h157v264q16 -6 30.5 -10.5t49.5 -4.5q31 0 53.5 7.5t43.5 23.5v-280h290v-29h-290v-670q0 -57 11 -93t29.5 -55.5t40 -25.5t41.5 -6q72 0 116 52t56 120l29 -10q-6 -27 -18.5 -59.5t-38 -62.5t-66.5 -49.5t-102 -19.5q-154 0 -214.5 59.5t-60.5 168.5v651h-157 z" />
<glyph unicode="u" horiz-adv-x="1224" d="M53 850v29h334v-629q0 -53 7 -98.5t27.5 -79t53.5 -53t86 -19.5q45 0 93 26.5t88 76t67 118t27 154.5v475h-156v29h332v-850h157v-29h-329v207h-4q-18 -41 -44 -83t-64 -76t-88 -55.5t-118 -21.5q-82 0 -133 18.5t-80 39.5q-14 10 -31.5 25.5t-32 42t-24.5 68.5t-10 103 v582h-158z" />
<glyph unicode="v" horiz-adv-x="1052" d="M20 850v29h496v-29h-168l264 -643l275 643h-168v29h311v-29h-110l-388 -918l-372 918h-140z" />
<glyph unicode="w" horiz-adv-x="1622" d="M43 850v29h494v-29h-170l229 -639l213 506l-51 133h-86v29h407v-29h-137l238 -635l256 635h-193v29h334v-29h-109l-366 -918l-279 744l-311 -744l-330 918h-139z" />
<glyph unicode="x" horiz-adv-x="1101" d="M57 850v29h482v-29h-162l211 -307l221 307h-152v29h301v-29h-108l-244 -336l334 -485h113v-29h-480v29h162l-239 348l-258 -348h151v-29h-301v29h109l280 377l-305 444h-115z" />
<glyph unicode="y" horiz-adv-x="1122" d="M66 -428q0 51 28.5 76.5t69.5 25.5q14 0 30.5 -3t31 -11t24.5 -22.5t10 -34.5q0 -29 -17.5 -54.5t-17.5 -56.5q0 -27 14.5 -35t39.5 -8q33 0 60.5 15.5t54 50t53 91t59.5 138.5l90 229l-354 877h-142v29h502v-29h-172l264 -643l277 643h-170v29h313v-29h-110l-338 -791 q-39 -88 -74 -177t-70 -179q-29 -74 -57.5 -129t-60 -90t-68.5 -52.5t-86 -17.5q-59 0 -95 18.5t-56.5 43t-26.5 51.5t-6 45z" />
<glyph unicode="z" horiz-adv-x="894" d="M74 0l510 850h-176q-51 0 -89 -3t-69 -21.5t-57.5 -59.5t-57.5 -117h-16l28 230h650l-510 -850h288q59 0 97.5 23.5t62 59t36.5 76.5t26 78h16l-27 -266h-712z" />
<glyph unicode="&#xaa;" horiz-adv-x="1007" d="M72 170q0 72 28.5 115t74.5 68.5t102.5 42t113.5 34.5q68 23 112 39t68.5 39.5t33.5 59.5t9 98q0 49 -6 88t-22.5 66.5t-47 42t-81.5 14.5q-68 0 -112 -24t-44 -77q0 -35 6 -68.5t6 -50.5q0 -29 -20.5 -48t-59.5 -19q-68 0 -84 24.5t-16 63.5q0 45 20.5 86t60.5 72.5 t100.5 50t138.5 18.5q94 0 157.5 -23.5t102.5 -63.5t55 -90t16 -105v-510q0 -59 18.5 -80t53.5 -21q23 0 47.5 8.5t46.5 24.5l17 -22q-27 -20 -64 -36t-90 -16q-98 0 -142 42t-61 118h-4q-8 -18 -22.5 -46t-44 -53.5t-78.5 -43t-125 -17.5q-86 0 -137.5 19.5t-80 48.5 t-37.5 64.5t-9 66.5zM248 193q0 -31 6 -64t22.5 -58.5t46 -42t76.5 -16.5q68 0 110 29t63.5 72t28.5 93t7 91v205h-4q-4 -27 -67 -53l-154 -62q-66 -27 -100.5 -74.5t-34.5 -119.5z" />
<glyph unicode="&#xad;" d="M96 379v135h381v-135h-381z" />
<glyph unicode="&#xb2;" horiz-adv-x="1073" d="M59 0v29q80 68 146.5 125t125 112.5t112 112.5t108.5 123q131 160 179 309.5t48 275.5q0 184 -62.5 278.5t-197.5 94.5q-104 0 -171.5 -46t-67.5 -128q0 -29 13 -58.5t13 -60.5q0 -35 -24.5 -52t-57.5 -17q-43 0 -73.5 22.5t-30.5 81.5q0 53 30.5 105.5t84 92.5t127 64.5 t157.5 24.5q119 0 204 -35t140.5 -91t82 -128t26.5 -148q0 -92 -26.5 -170.5t-73 -148.5t-105.5 -133.5t-125 -126.5q-92 -92 -181 -176t-196 -180h469q121 0 174.5 58t65.5 161h22v-371h-936z" />
<glyph unicode="&#xb3;" horiz-adv-x="1015" d="M55 291l29 6q4 -29 20.5 -78t56.5 -98t110.5 -85t183.5 -36q63 0 118.5 18.5t95.5 67.5t62.5 134t22.5 218q0 68 -10.5 134.5t-41 118.5t-84 85t-139.5 33q-72 0 -131 -21.5t-110 -58.5l-19 33l33 16q16 8 37.5 16.5t51.5 17.5t71 19q90 25 149.5 62t93 86t47 108.5 t13.5 129.5q0 49 -10.5 93t-35 77.5t-64.5 53t-101 19.5q-68 0 -111 -17.5t-66.5 -41t-31.5 -47t-8 -37.5q0 -55 17.5 -84t17.5 -51q0 -37 -26 -51.5t-60 -14.5q-90 0 -91 88q0 27 17.5 75t60.5 95t116 81t181 34q98 0 171 -31t120 -77t69.5 -100t22.5 -103 q0 -86 -50 -147.5t-116.5 -102.5t-134 -63.5t-102.5 -28.5v-5q88 -4 170 -34.5t145.5 -85t100 -128t36.5 -165.5q0 -82 -35.5 -162t-100 -143.5t-156 -102.5t-201.5 -39q-102 0 -174 28t-119 74t-74 102.5t-37 115.5z" />
<glyph unicode="&#xb9;" horiz-adv-x="755" d="M10 1176q135 76 246 145.5t209 167.5h41v-1460h227v-29h-631v29h228v1298q-31 -23 -70 -45l-233 -133z" />
<glyph unicode="&#xba;" horiz-adv-x="1081" d="M63 438q0 100 44.5 186.5t113 149t153.5 97t167 34.5t167 -34.5t153.5 -97t112.5 -148.5t44 -187q0 -96 -41 -181t-107.5 -148.5t-152.5 -100.5t-176 -37t-176 37t-153 100.5t-108 148.5t-41 181zM268 438q0 -145 22.5 -231t59.5 -132t86 -60.5t105 -14.5q55 0 104 14.5 t86 60.5t59.5 132t22.5 231q0 123 -16.5 206t-50 135t-85 75t-120.5 23q-70 0 -121 -23t-85 -75t-50.5 -135t-16.5 -206z" />
<glyph unicode="&#x152;" horiz-adv-x="3000" d="M1675 0v10h205v1413h-205v11h748h481v-615q0 129 -33 238.5t-95.5 191.5t-151.5 128t-201 46h-338v-624h205q57 0 112 26.5t98.5 69.5t70 98.5t26.5 112.5v-645q-39 111 -92.5 175t-100.5 99q-55 39 -114 53h-205v-778h338q113 0 201.5 46t151 128t95.5 191.5t33 238.5 v-614h-481h-748zM66 748q0 154 59 290t160.5 237t237.5 160.5t290 59.5t290 -59.5t237.5 -160.5t161 -237.5t59.5 -289.5q0 -154 -59.5 -290t-161 -237.5t-237.5 -161t-290 -59.5t-290 59.5t-237.5 161t-160.5 237.5t-59 290zM270 748q0 -154 43 -288t117 -233.5t172 -158 t211 -58.5t211 58.5t172 158t117 233.5t43 288t-43 287.5t-117 233t-172 158t-211 58.5t-211 -58.5t-172 -158t-117 -233t-43 -287.5z" />
<glyph unicode="&#x153;" horiz-adv-x="2043" d="M1144 434q0 90 36 175t98.5 150.5t146.5 105.5t180 40q57 0 123 -20.5t122 -66.5t94 -121.5t38 -188.5h-631q0 -20 -1 -42t-1 -54q0 -68 8.5 -141.5t36 -133t82 -98.5t144.5 -39t148 26.5t92 64.5t50.5 77t24.5 63l31 -6q-6 -23 -23.5 -64.5t-55.5 -83.5t-102.5 -74 t-166.5 -32t-189.5 33t-151 94.5t-98.5 146.5t-35 189zM1353 537h420q4 29 4 53v51q0 70 -13 115t-36.5 71.5t-57.5 38t-73 11.5q-70 0 -115 -28t-71.5 -75t-40 -108t-17.5 -129zM63 438q0 100 44.5 186.5t113 149t153.5 97t167 34.5t167 -34.5t153.5 -97t112.5 -148.5 t44 -187q0 -96 -41 -181t-107.5 -148.5t-152.5 -100.5t-176 -37t-176 37t-153 100.5t-108 148.5t-41 181zM268 438q0 -145 22.5 -231t59.5 -132t86 -60.5t105 -14.5q55 0 104 14.5t86 60.5t59.5 132t22.5 231q0 123 -16.5 206t-50 135t-85 75t-120.5 23q-70 0 -121 -23 t-85 -75t-50.5 -135t-16.5 -206z" />
<glyph unicode="&#x2000;" horiz-adv-x="806" />
<glyph unicode="&#x2001;" horiz-adv-x="1613" />
<glyph unicode="&#x2002;" horiz-adv-x="806" />
<glyph unicode="&#x2003;" horiz-adv-x="1613" />
<glyph unicode="&#x2004;" horiz-adv-x="536" />
<glyph unicode="&#x2005;" horiz-adv-x="403" />
<glyph unicode="&#x2006;" horiz-adv-x="268" />
<glyph unicode="&#x2007;" horiz-adv-x="268" />
<glyph unicode="&#x2008;" horiz-adv-x="200" />
<glyph unicode="&#x2009;" horiz-adv-x="321" />
<glyph unicode="&#x200a;" horiz-adv-x="88" />
<glyph unicode="&#x2010;" d="M96 379v135h381v-135h-381z" />
<glyph unicode="&#x2011;" d="M96 379v135h381v-135h-381z" />
<glyph unicode="&#x2012;" d="M96 379v135h381v-135h-381z" />
<glyph unicode="&#x2013;" horiz-adv-x="1024" d="M96 379v135h834v-135h-834z" />
<glyph unicode="&#x2014;" horiz-adv-x="2048" d="M96 379v135h1858v-135h-1858z" />
<glyph unicode="&#x2019;" horiz-adv-x="212" d="M59 1384v33q0 35 10.5 56.5t41.5 21.5t41 -21.5t10 -56.5v-33q0 -14 -2 -30l-31 -451h-37l-31 451q-2 16 -2 30z" />
<glyph unicode="&#x201c;" horiz-adv-x="526" d="M84 1384v33q0 35 10 56.5t41 21.5t41 -21.5t10 -56.5v-33q0 -14 -2 -30l-30 -451h-37l-31 451q-2 16 -2 30zM342 1384v33q0 35 10 56.5t41 21.5t41 -21.5t10 -56.5v-33q0 -14 -2 -30l-30 -451h-37l-31 451q-2 16 -2 30z" />
<glyph unicode="&#x201d;" horiz-adv-x="526" d="M84 1384v33q0 35 10 56.5t41 21.5t41 -21.5t10 -56.5v-33q0 -14 -2 -30l-30 -451h-37l-31 451q-2 16 -2 30zM342 1384v33q0 35 10 56.5t41 21.5t41 -21.5t10 -56.5v-33q0 -14 -2 -30l-30 -451h-37l-31 451q-2 16 -2 30z" />
<glyph unicode="&#x2026;" horiz-adv-x="1050" d="M770 86q0 45 31.5 77t76.5 32t77 -32t32 -77t-32 -77t-77 -32t-76.5 32t-31.5 77zM420 86q0 45 31.5 77t76.5 32t77 -32t32 -77t-32 -77t-77 -32t-76.5 32t-31.5 77zM70 86q0 45 31.5 77t76.5 32t77 -32t32 -77t-32 -77t-77 -32t-76.5 32t-31.5 77z" />
<glyph unicode="&#x202f;" horiz-adv-x="321" />
<glyph unicode="&#x205f;" horiz-adv-x="403" />
<glyph unicode="&#x2122;" horiz-adv-x="3278" d="M1581 0v10h205v1413h-205v11h615v-11h-205l473 -1167l346 1167h-205v11h615v-11h-205v-1413h205v-10h-615v10h205l-1 60q-1 59 -1 155v221v254q0 305 2 693l-409 -1393l-410 1024v-1014h205v-10h-615zM45 819v615h1434v-615q0 129 -33 238.5t-95.5 191.5t-151.5 128 t-202 46h-133v-1413h205v-10h-614v10h204v1413h-133q-113 0 -201.5 -46t-151 -128t-95.5 -191.5t-33 -238.5z" />
<glyph unicode="&#xe000;" horiz-adv-x="880" d="M0 880h880v-880h-880v880z" />
<glyph unicode="&#xfb01;" horiz-adv-x="1394" d="M886 0v29h158v821h-158v29h334v-850h158v-29h-492zM1020 1356q0 45 31.5 76.5t76.5 31.5t77 -31.5t32 -76.5t-32 -77t-77 -32t-76.5 32t-31.5 77zM37 0v29h158v821h-158v29h158v108q0 72 7 124t19 92t28.5 70t37.5 54q53 68 133 118t170 50q68 0 116 -19.5t78.5 -48 t45 -62.5t14.5 -60q0 -39 -22.5 -72t-76.5 -33q-27 0 -60.5 12.5t-33.5 53.5q0 35 19.5 62.5t19.5 62.5q0 45 -37 60t-75 15q-84 0 -145.5 -73.5t-61.5 -229.5v-284h254v-29h-254v-821h186v-29h-520z" />
<glyph unicode="&#xfb02;" horiz-adv-x="1404" d="M893 0v29h157v1419h-157v29h333v-1448h158v-29h-491zM37 0v29h158v821h-158v29h158v108q0 72 7 124t19 92t28.5 70t37.5 54q53 68 133 118t170 50q68 0 116 -19.5t78.5 -48t45 -62.5t14.5 -60q0 -39 -22.5 -72t-76.5 -33q-27 0 -60.5 12.5t-33.5 53.5q0 35 19.5 62.5 t19.5 62.5q0 45 -37 60t-75 15q-84 0 -145.5 -73.5t-61.5 -229.5v-284h254v-29h-254v-821h186v-29h-520z" />
<glyph unicode="&#xfb03;" horiz-adv-x="2260" d="M1753 0v29h158v821h-158v29h334v-850h158v-29h-492zM1887 1356q0 45 31.5 76.5t76.5 31.5t77 -31.5t32 -76.5t-32 -77t-77 -32t-76.5 32t-31.5 77zM903 0v29h158v821h-158v29h158v108q0 72 7 124t19 92t28.5 70t37.5 54q53 68 133 118t170 50q68 0 116 -19.5t78.5 -48 t45 -62.5t14.5 -60q0 -39 -22.5 -72t-76.5 -33q-27 0 -60.5 12.5t-33.5 53.5q0 35 19.5 62.5t19.5 62.5q0 45 -37 60t-75 15q-84 0 -145.5 -73.5t-61.5 -229.5v-284h254v-29h-254v-821h186v-29h-520zM37 0v29h158v821h-158v29h158v108q0 72 7 124t19 92t28.5 70t37.5 54 q53 68 133 118t170 50q68 0 116 -19.5t78.5 -48t45 -62.5t14.5 -60q0 -39 -22.5 -72t-76.5 -33q-27 0 -60.5 12.5t-33.5 53.5q0 35 19.5 62.5t19.5 62.5q0 45 -37 60t-75 15q-84 0 -145.5 -73.5t-61.5 -229.5v-284h254v-29h-254v-821h186v-29h-520z" />
<glyph unicode="&#xfb04;" horiz-adv-x="2271" d="M1760 0v29h157v1419h-157v29h333v-1448h158v-29h-491zM903 0v29h158v821h-158v29h158v108q0 72 7 124t19 92t28.5 70t37.5 54q53 68 133 118t170 50q68 0 116 -19.5t78.5 -48t45 -62.5t14.5 -60q0 -39 -22.5 -72t-76.5 -33q-27 0 -60.5 12.5t-33.5 53.5q0 35 19.5 62.5 t19.5 62.5q0 45 -37 60t-75 15q-84 0 -145.5 -73.5t-61.5 -229.5v-284h254v-29h-254v-821h186v-29h-520zM37 0v29h158v821h-158v29h158v108q0 72 7 124t19 92t28.5 70t37.5 54q53 68 133 118t170 50q68 0 116 -19.5t78.5 -48t45 -62.5t14.5 -60q0 -39 -22.5 -72t-76.5 -33 q-27 0 -60.5 12.5t-33.5 53.5q0 35 19.5 62.5t19.5 62.5q0 45 -37 60t-75 15q-84 0 -145.5 -73.5t-61.5 -229.5v-284h254v-29h-254v-821h186v-29h-520z" />
</font>
</defs>
</svg>
